<svg xmlns="http://www.w3.org/2000/svg" viewBox="0 0 512 512" width="512" height="512">
  <circle cx="256" cy="256" r="240" fill="#2563eb" />
  <path d="M369.8 377.9c-10.9 10.9-28.7 10.9-39.6 0l-53.7-53.7c-4.4-4.4-12.7-3.9-16.7.1-17.7 17.7-46.7 17.7-64.4 0l-67.9-67.9c-17.7-17.7-17.7-46.7 0-64.4 4-4 4.5-12.3.1-16.7l-53.7-53.7c-10.9-10.9-10.9-28.7 0-39.6l28.3-28.3c10.9-10.9 28.7-10.9 39.6 0l53.7 53.7c4.4 4.4 12.7 3.9 16.7-.1 17.7-17.7 46.7-17.7 64.4 0l67.9 67.9c17.7 17.7 17.7 46.7 0 64.4-4 4-4.5 12.3-.1 16.7l53.7 53.7c10.9 10.9 10.9 28.7 0 39.6l-28.3 28.3z" fill="white" />
  <path d="M256 160c-53 0-96 43-96 96s43 96 96 96 96-43 96-96-43-96-96-96zm0 160c-35.3 0-64-28.7-64-64s28.7-64 64-64 64 28.7 64 64-28.7 64-64 64z" fill="#2563eb" />
</svg>
